<?xml version="1.0" encoding="UTF-8"?>
<!DOCTYPE svg PUBLIC "-//W3C//DTD SVG 1.1//EN" "http://www.w3.org/Graphics/SVG/1.1/DTD/svg11.dtd">
<svg xmlns="http://www.w3.org/2000/svg" xml:space="preserve" width="32" height="32" version="1.1" style="shape-rendering:geometricPrecision; text-rendering:geometricPrecision; image-rendering:optimizeQuality; fill-rule:evenodd; clip-rule:evenodd"
viewBox="0 0 2162 1914.79"
 xmlns:xlink="http://www.w3.org/1999/xlink">
 <defs>
  <style type="text/css">
   <![CDATA[
    .fil2 {fill:black;fill-rule:nonzero}
    .fil0 {fill:#051E72;fill-rule:nonzero}
    .fil1 {fill:url(#id0);fill-rule:nonzero}
   ]]>
  </style>
  <linearGradient id="id0" gradientUnits="userSpaceOnUse" x1="-13.78" y1="1450.48" x2="2176.17" y2="1450.48">
   <stop offset="0" style="stop-opacity:1; stop-color:#F83993"/>
   <stop offset="1" style="stop-opacity:1; stop-color:#6F2CF8"/>
  </linearGradient>
 </defs>
 <g id="Camada_x0020_1">
  <metadata id="CorelCorpID_0Corel-Layer"/>
  <g id="_2380667804400">
   <path class="fil0" d="M510.57 426.16l1156.6 0c2.74,0 4.95,2.22 4.95,4.95l-0.01 304.3c0.01,2.73 -2.21,4.95 -4.94,4.95l-1156.61 0c-2.72,0 -4.94,-2.22 -4.94,-4.95l-0.01 -304.3c0.01,-2.73 2.22,-4.95 4.95,-4.95z"/>
   <path class="fil0" d="M1245.97 6.18l0 1154.14c0.01,3.41 -2.76,6.18 -6.17,6.18l-301.83 0c-3.41,0 -6.18,-2.77 -6.18,-6.18l0 -1154.14c0,-3.4 2.77,-6.17 6.18,-6.17l301.82 -0.01c3.42,0.01 6.19,2.78 6.19,6.19z"/>
   <path class="fil1" d="M1088.79 1914.79c492.08,-0.01 929.73,-313.54 1088.39,-779.27l-346.86 -142.7c-99.56,326.06 -400.7,548.89 -741.7,548.89 -341,0 -642.14,-222.82 -741.76,-548.86l-346.86 142.7c158.62,465.8 596.27,779.23 1088.39,779.23 0,0 0.42,0 0.42,0l-0.02 0.01z"/>
  </g>
 </g>
</svg> 