<?xml version="1.0" encoding="UTF-8"?>
<!DOCTYPE svg PUBLIC "-//W3C//DTD SVG 1.1//EN" "http://www.w3.org/Graphics/SVG/1.1/DTD/svg11.dtd">
<!-- Creator: CorelDRAW -->
<svg xmlns="http://www.w3.org/2000/svg" xml:space="preserve" width="32" height="32" version="1.1" style="shape-rendering:geometricPrecision; text-rendering:geometricPrecision; image-rendering:optimizeQuality; fill-rule:evenodd; clip-rule:evenodd"
viewBox="0 0 2162 1914.79"
 xmlns:xlink="http://www.w3.org/1999/xlink"
 xmlns:xodm="http://www.corel.com/coreldraw/odm/2003"
 data-name="Layer 1">
 <defs>
  <style type="text/css">
   <![CDATA[
    .fil2 {fill:black;fill-rule:nonzero}
    .fil0 {fill:#051E72;fill-rule:nonzero}
    .fil1 {fill:url(#id0);fill-rule:nonzero}
   ]]>
  </style>
  <linearGradient id="id0" gradientUnits="userSpaceOnUse" x1="-13.78" y1="1450.48" x2="2176.17" y2="1450.48">
   <stop offset="0" style="stop-opacity:1; stop-color:#F83993"/>
   <stop offset="1" style="stop-opacity:1; stop-color:#6F2CF8"/>
  </linearGradient>
 </defs>
 <g id="Camada_x0020_1">
  <metadata id="CorelCorpID_0Corel-Layer"/>
  <g id="_2380667804400">
   <path class="fil0" d="M510.57 426.16l1156.6 0c2.74,0 4.95,2.22 4.95,4.95l-0.01 304.3c0.01,2.73 -2.21,4.95 -4.94,4.95l-1156.61 0c-2.72,0 -4.94,-2.22 -4.94,-4.95l-0.01 -304.3c0.01,-2.73 2.22,-4.95 4.95,-4.95z"/>
   <path class="fil0" d="M1245.97 6.18l0 1154.14c0.01,3.41 -2.76,6.18 -6.17,6.18l-301.83 0c-3.41,0 -6.18,-2.77 -6.18,-6.18l0 -1154.14c0,-3.4 2.77,-6.17 6.18,-6.17l301.82 -0.01c3.42,0.01 6.19,2.78 6.19,6.19z"/>
   <path class="fil1" d="M1088.79 1914.79c492.08,-0.01 929.73,-313.54 1088.39,-779.27l-346.86 -142.7c-99.56,326.06 -400.7,548.89 -741.7,548.89 -341,0 -642.14,-222.82 -741.76,-548.86l-346.86 142.7c158.62,465.8 596.27,779.23 1088.39,779.23 0,0 0.42,0 0.42,0l-0.02 0.01z"/>
   <path class="fil2" d="M2672.79 576.45l79.12 0c18.9,0 28.26,8.83 28.26,26.31l0 441.52 688.78 0 0 -441.52c0,-17.66 9.54,-26.31 28.44,-26.31l77 -0.01c18.9,0 28.44,8.83 28.44,26.31l0 1051.7c0,17.66 -9.54,26.31 -28.44,26.31l-77 0.01c-18.9,0 -28.44,-8.83 -28.44,-26.31l0 -488.32 -688.77 0 0 488.32c0,17.66 -9.36,26.31 -28.26,26.31l-79.12 0c-1.05,0.14 -2.14,0.22 -3.22,0.22 -12.88,0 -23.32,-10.44 -23.32,-23.32 0,-1.08 0.07,-2.16 0.23,-3.23l-0.01 -1051.69c-0.15,-1.07 -0.22,-2.15 -0.22,-3.23 0,-12.88 10.44,-23.32 23.32,-23.32 1.08,0 2.16,0.08 3.23,0.23l-0.01 0z"/>
   <path class="fil2" d="M3936.24 1536.85c-108.79,-106.67 -163.19,-242.43 -163.19,-407.26 0,-164.84 54.4,-300.94 163.19,-408.32 108.55,-107.38 246.01,-161.07 412.38,-161.07 160.71,0 293.4,53.69 398.07,161.07 104.67,107.38 157.01,243.48 157.01,408.32l0 36.56c0.15,1 0.22,2.02 0.22,3.04 0,11.8 -9.57,21.37 -21.37,21.37 -1.01,0 -2.04,-0.07 -3.04,-0.22l-968.7 0.01c8.19,106.42 57.56,205.71 137.42,276.56 80.28,72.41 183.94,108.55 310.99,108.44 131.04,0 256.67,-43.86 376.88,-131.58 4.55,-4.03 10.43,-6.26 16.51,-6.26 7.92,0 15.37,3.76 20.06,10.14l40.44 54.75c4.99,4.74 7.82,11.33 7.82,18.21 0,9.49 -5.36,18.16 -13.83,22.41 -123.85,100.11 -278.53,154.79 -437.81,154.79 -3.48,0 -7.23,-0.09 -10.63,-0.09 -172.83,0.01 -313.64,-53.62 -422.42,-160.88zm412.21 -855.14c-120.33,0 -220.99,36.14 -302,108.43 -80.56,71.34 -130.07,171.4 -137.76,278.71l861.14 -0.02c-7.72,-105.67 -54.77,-204.85 -131.76,-277.63 -74.93,-70.44 -174.02,-109.7 -276.92,-109.7 -4.2,0 -8.54,0.1 -12.69,0.2l-0.01 0.01z"/>
   <path class="fil2" d="M5100.26 217.76l81.06 0c1.07,-0.15 2.16,-0.23 3.24,-0.23 12.88,0 23.32,10.44 23.32,23.32 0,1.08 -0.08,2.16 -0.23,3.23l0 1410.39c0.15,1.05 0.23,2.14 0.23,3.22 0,12.88 -10.44,23.32 -23.32,23.32 -1.08,0 -2.16,-0.08 -3.23,-0.23l-81.07 0.01c-1.06,0.14 -2.14,0.22 -3.22,0.22 -12.87,0 -23.31,-10.44 -23.31,-23.32 0,-1.08 0.08,-2.16 0.23,-3.23l0 -1410.38c-0.15,-1.07 -0.23,-2.15 -0.23,-3.23 0,-12.88 10.44,-23.32 23.31,-23.32 1.08,0 2.16,0.08 3.23,0.23l-0.01 0z"/>
   <path class="fil2" d="M5444.82 217.76l81.06 0c1.06,-0.15 2.14,-0.23 3.22,-0.23 12.88,0 23.32,10.44 23.32,23.32 0,1.08 -0.08,2.16 -0.23,3.23l0 1410.39c0.15,1.05 0.23,2.14 0.23,3.22 0,12.88 -10.44,23.32 -23.32,23.32 -1.08,0 -2.16,-0.08 -3.23,-0.23l-81.05 0.01c-1.13,0.16 -2.27,0.25 -3.41,0.25 -12.88,0 -23.32,-10.44 -23.32,-23.32 0,-1.09 0.08,-2.18 0.23,-3.25l0.01 -1410.39c-0.15,-1.08 -0.23,-2.17 -0.23,-3.26 0,-12.88 10.44,-23.32 23.32,-23.32 1.14,0 2.28,0.09 3.4,0.25l0.01 0z"/>
   <path class="fil2" d="M5886.52 1535.96c-109.5,-107.61 -164.24,-243.01 -164.24,-406.2 0,-163.18 54.75,-298.94 164.24,-407.26 103.83,-103.98 244.83,-162.45 391.78,-162.45 4.26,0 8.65,0.07 12.84,0.13 163.53,0.01 299.63,53.71 408.31,161.08 108.67,107.38 163.07,243.48 163.19,408.32 0,163.54 -54.4,298.94 -163.19,406.2 -108.79,107.26 -244.9,161.24 -408.32,161.95 -4.09,0.07 -8.42,0.14 -12.56,0.14 -146.92,0 -288.01,-58.27 -392.07,-161.91l0.02 0zm404.61 -854.25c-126.92,0 -230.94,42.56 -312.06,127.69 -81.13,85.13 -121.62,191.85 -121.51,320.19 -0.13,4.17 -0.19,8.5 -0.19,12.73 0,113.53 43.63,222.79 121.7,305.13 81,85.15 185.02,127.72 312.05,127.72 127.04,0 231.77,-42.56 314.19,-127.69 81.12,-85.01 121.62,-190.97 121.5,-317.89 -0.12,-126.92 -40.62,-233.66 -121.5,-320.19 -80.65,-85.13 -185.38,-127.69 -314.19,-127.69z"/>
   <path class="fil2" d="M7061.67 576.45l431.63 0c159.42,0 293.82,51.98 403.2,155.95 109.38,103.96 164.12,235.71 164.24,395.25 0,162.13 -54.75,294.82 -164.24,398.07 -109.5,103.25 -243.9,154.71 -403.2,154.35l-431.63 0c-1.21,0.17 -2.43,0.27 -3.65,0.27 -13.75,0 -24.9,-11.15 -24.9,-24.9 0,-1.27 0.1,-2.54 0.29,-3.8l0.01 -1046.93c-0.18,-1.2 -0.27,-2.42 -0.27,-3.62 0,-13.75 11.15,-24.9 24.9,-24.9 1.21,0 2.43,0.09 3.62,0.27zm206.81 222.88l0 656.45 224.82 0c101.37,0 181.73,-29.43 241.07,-88.3 59.34,-58.87 88.78,-138.87 88.3,-240.01 0,-101.37 -29.44,-181.43 -88.3,-240.18 -58.87,-58.75 -139.23,-88.18 -241.07,-88.3l-224.82 0.35z"/>
   <path class="fil2" d="M8190.37 1129.59c-0.08,-3.94 -0.15,-8.24 -0.15,-12.26 0,-149.16 61.78,-291.84 170.41,-393.94 110.8,-105.28 257.91,-164.09 410.77,-164.09 152.86,0 299.97,58.81 410.76,164.07 108.23,106.81 169.21,252.71 169.21,404.8 0,152.1 -60.98,298 -169.18,404.82 -111.47,104.74 -258.89,163.18 -411.88,163.18 -152.48,0 -299.47,-58.07 -410.76,-162.17 -108.05,-101.63 -169.33,-243.42 -169.33,-391.78 0,-4.21 0.07,-8.47 0.13,-12.61l0.02 -0.01zm581.58 -348.45c-101.37,0 -184.15,32.37 -248.32,97.13 -64.17,64.75 -96.01,148.52 -95.55,251.31 -0.15,3.99 -0.23,8.14 -0.23,12.16 0,88.56 34.64,173.68 96.47,237.04 64.29,64.99 147.06,97.43 248.32,97.31 3.68,0.1 7.46,0.18 11.17,0.18 88.32,0 173.07,-35.48 235.01,-98.4 61.83,-63.54 96.43,-148.8 96.43,-237.47 0,-3.58 -0.08,-7.28 -0.17,-10.81 0,-102.67 -32.08,-186.44 -96.25,-251.31 -62.16,-62.3 -146.72,-97.36 -234.74,-97.36 -4.05,0 -8.14,0.12 -12.15,0.24l0 -0.01z"/>
   <path class="fil2" d="M10052.89 560.2c97.23,0.15 193.05,24.48 278.65,70.63 84.71,43.06 155.43,109.59 203.64,191.45 3.53,4 5.47,9.14 5.47,14.45 0,7.22 -3.56,13.97 -9.51,18.06l-127.69 97.13c-13.42,13.6 -26.31,12.19 -38.5,-4.07 -79.59,-109.26 -183.61,-163.95 -312.06,-164.07 -101.37,0 -182.73,31.73 -244.08,95.19 -61.34,63.47 -92.07,145.88 -92.19,247.25 0,101.37 31.03,184.79 93.08,250.26 62.04,65.46 143.11,98.02 243.19,97.66 135.05,0 241.01,-56.75 317.89,-170.25 4.11,-4.59 9.99,-7.21 16.15,-7.21 6.16,0 12.04,2.62 16.16,7.2l127.69 101.37c5.79,4.19 9.24,10.91 9.24,18.06 0,5.21 -1.84,10.27 -5.18,14.27 -48.81,81.31 -118.87,147.92 -202.54,192.51 -84.26,44.36 -178.07,67.66 -273.31,67.66 -2,0 -4.08,0 -6.07,0 -162.15,-0.01 -297.92,-54.42 -407.29,-163.21 -109.38,-108.8 -164.07,-244.9 -164.07,-408.32 0,-162.13 54.69,-296.88 164.07,-404.26 109.38,-107.38 245.13,-161.3 407.26,-161.77z"/>
  </g>
 </g>
</svg>
